<svg width="648" height="297" viewBox="0 0 648 297" fill="none" xmlns="http://www.w3.org/2000/svg">
<path d="M29.407 59.2341C47.503 59.2341 58.9 48.0981 58.9 30.0891C58.9 12.0801 47.503 0.944068 29.407 0.944068H2.872V59.2341H29.407ZM29.407 9.38307C42.892 9.38307 48.982 15.1251 48.982 30.0891C48.982 45.0531 42.892 50.7951 29.407 50.7951H12.181V9.38307H29.407ZM77.4718 10.9491V0.944068H68.0758V10.9491H77.4718ZM77.4718 59.2341V15.9951H68.0758V59.2341H77.4718ZM108.792 60.1041C120.972 60.1041 128.976 55.3191 128.976 47.2281C128.976 40.0941 124.278 36.6141 114.012 35.3091L104.007 33.9171C97.4825 33.0471 95.7425 31.8291 95.7425 28.4361C95.7425 24.3471 98.5265 22.6071 106.443 22.6071C116.013 22.6071 118.623 25.3041 118.623 30.4371V30.9591H127.932V30.6981C127.932 20.4321 119.928 15.1251 106.704 15.1251C93.3935 15.1251 86.5205 20.5191 86.5205 28.0881C86.5205 35.3091 91.4795 38.7891 99.6575 39.8331L111.489 41.3991C117.666 42.2691 119.754 43.4001 119.754 46.9671C119.754 50.7951 117.231 52.5351 108.792 52.5351C99.7445 52.5351 96.3515 50.7081 96.3515 45.0531V44.3571H86.9555V44.6181C86.9555 54.6231 94.8725 60.1041 108.792 60.1041ZM159.768 60.1041C172.731 60.1041 182.214 52.7961 182.214 42.0081V41.0511H172.905V41.6601C172.905 48.3591 168.033 51.6651 159.594 51.6651C149.85 51.6651 145.5 46.9671 145.5 37.6581C145.5 28.1751 149.85 23.5641 159.594 23.5641C168.033 23.5641 172.905 26.8701 172.905 33.5691V34.0911H182.214V33.2211C182.214 22.4331 172.731 15.1251 159.768 15.1251C145.5 15.1251 136.191 24.1731 136.191 37.6581C136.191 50.9691 145.5 60.1041 159.768 60.1041ZM213.435 60.1041C227.877 60.1041 237.534 50.9691 237.534 37.6581C237.534 24.1731 227.877 15.1251 213.435 15.1251C199.08 15.1251 189.423 24.1731 189.423 37.6581C189.423 50.9691 199.08 60.1041 213.435 60.1041ZM213.435 51.7521C202.995 51.7521 198.645 46.7931 198.645 37.6581C198.645 28.4361 202.995 23.3901 213.435 23.3901C223.962 23.3901 228.312 28.4361 228.312 37.6581C228.312 46.7931 223.962 51.7521 213.435 51.7521ZM274.281 59.2341L294.639 15.9951H284.46L269.061 50.0991H268.365L252.966 15.9951H242.613L262.797 59.2341H274.281ZM323.383 60.1041C336.259 60.1041 345.307 53.7531 345.307 44.5311V43.7481H335.911V44.4441C335.911 49.5771 332.17 52.5351 323.122 52.5351C313.117 52.5351 309.028 48.0981 308.68 39.7461H345.394C345.655 38.4411 345.742 37.2231 345.742 35.6571C345.742 22.5201 336.607 15.1251 323.209 15.1251C309.115 15.1251 299.893 24.1731 299.893 37.6581C299.893 52.1001 309.202 60.1041 323.383 60.1041ZM323.035 22.5201C332.257 22.5201 336.868 26.3481 336.868 34.3521V34.5261H308.767C309.289 26.7831 313.465 22.5201 323.035 22.5201ZM364.351 59.2341V34.9611C364.351 27.2181 367.396 23.1291 374.791 23.1291C381.229 23.1291 383.839 26.0001 383.839 32.1771V36.0051H393.148V30.3501C393.148 22.1721 388.885 15.1251 379.054 15.1251C370.18 15.1251 365.482 20.6931 364.177 27.6531H363.568V15.9951H354.955V59.2341H364.351ZM30.712 139.104C47.242 139.104 58.639 130.404 58.639 116.397V115.266H48.286V116.397C48.286 125.358 42.631 130.056 30.799 130.056C17.14 130.056 10.528 123.618 10.528 109.089C10.528 94.5601 17.14 88.0351 30.799 88.0351C42.631 88.0351 48.286 92.8201 48.286 101.694V102.912H58.639V101.694C58.639 87.7741 47.155 79.0741 30.712 79.0741C12.616 79.0741 0.61 90.9061 0.61 109.089C0.61 127.272 12.616 139.104 30.712 139.104ZM89.8339 139.104C104.276 139.104 113.933 129.969 113.933 116.658C113.933 103.173 104.276 94.1251 89.8339 94.1251C75.4789 94.1251 65.8219 103.173 65.8219 116.658C65.8219 129.969 75.4789 139.104 89.8339 139.104ZM89.8339 130.752C79.3939 130.752 75.0439 125.793 75.0439 116.658C75.0439 107.436 79.3939 102.39 89.8339 102.39C100.361 102.39 104.711 107.436 104.711 116.658C104.711 125.793 100.361 130.752 89.8339 130.752ZM132.323 138.234V79.9441H122.927V138.234H132.323ZM152.594 138.234V79.9441H143.198V138.234H152.594ZM185.22 139.104C198.096 139.104 207.144 132.753 207.144 123.531V122.748H197.748V123.444C197.748 128.577 194.007 131.535 184.959 131.535C174.954 131.535 170.865 127.098 170.517 118.746H207.231C207.492 117.441 207.579 116.223 207.579 114.657C207.579 101.52 198.444 94.1251 185.046 94.1251C170.952 94.1251 161.73 103.173 161.73 116.658C161.73 131.1 171.039 139.104 185.22 139.104ZM184.872 101.52C194.094 101.52 198.705 105.348 198.705 113.352V113.526H170.604C171.126 105.783 175.302 101.52 184.872 101.52ZM238.628 139.104C251.591 139.104 261.074 131.796 261.074 121.008V120.051H251.765V120.66C251.765 127.359 246.893 130.665 238.454 130.665C228.71 130.665 224.36 125.967 224.36 116.658C224.36 107.175 228.71 102.564 238.454 102.564C246.893 102.564 251.765 105.87 251.765 112.569V113.091H261.074V112.221C261.074 101.433 251.591 94.1251 238.628 94.1251C224.36 94.1251 215.051 103.173 215.051 116.658C215.051 129.969 224.36 139.104 238.628 139.104ZM298.56 138.234V129.795H290.73C285.336 129.795 282.9 128.403 282.9 123.096V102.825H298.56V94.9951H282.9V85.5121H273.591V94.9951H266.283V102.825H273.591V123.618C273.591 134.145 279.333 138.234 288.642 138.234H298.56ZM308.178 147.978C313.572 147.978 316.704 145.368 316.704 139.974V124.749H304.872V138.234H310.092V140.061C310.092 141.888 309.396 142.236 307.917 142.236H305.046V147.978H308.178ZM364.57 139.104C382.666 139.104 390.496 131.1 390.496 117.963V111.96H399.979V104.13H390.496V94.9951H381.274V104.13H362.308C355.261 104.13 351.259 101.955 351.259 96.0391C351.259 90.1231 354.391 87.8611 362.047 87.8611H375.358V79.3351H363.265C349.867 79.3351 341.95 84.2941 341.95 94.3861C341.95 100.737 345.778 105.87 353.347 107.001V107.697C344.995 109.002 339.862 113.961 339.862 122.313C339.862 133.536 349.084 139.104 364.57 139.104ZM364.918 130.578C353.26 130.578 349.345 127.794 349.345 121.269C349.345 114.57 353.521 111.96 360.568 111.96H381.274V118.398C381.274 127.446 377.272 130.578 364.918 130.578ZM447.914 139.104C465.14 139.104 472.361 130.926 472.361 122.052C472.361 113.526 466.619 108.219 454.961 106.131L440.78 103.695C433.907 102.216 430.949 100.563 430.949 95.5171C430.949 90.2971 435.125 87.6871 445.739 87.6871C457.832 87.6871 462.095 91.2541 462.095 98.3881V99.5191H471.404V98.9971C471.404 87.6001 463.661 79.0741 446.609 79.0741C428.513 79.0741 421.553 87.6001 421.553 96.0391C421.553 105.609 428.513 110.133 438.344 111.873L452.612 114.222C460.007 115.614 462.965 117.528 462.965 122.574C462.965 128.055 459.05 130.491 447.914 130.491C435.125 130.491 431.036 127.011 431.036 120.051V118.659H421.64V119.181C421.64 131.448 430.514 139.104 447.914 139.104ZM502.957 139.104C515.833 139.104 524.881 132.753 524.881 123.531V122.748H515.485V123.444C515.485 128.577 511.744 131.535 502.696 131.535C492.691 131.535 488.602 127.098 488.254 118.746H524.968C525.229 117.441 525.316 116.223 525.316 114.657C525.316 101.52 516.181 94.1251 502.783 94.1251C488.689 94.1251 479.467 103.173 479.467 116.658C479.467 131.1 488.776 139.104 502.957 139.104ZM502.609 101.52C511.831 101.52 516.442 105.348 516.442 113.352V113.526H488.341C488.863 105.783 493.039 101.52 502.609 101.52ZM543.924 138.234V79.9441H534.528V138.234H543.924ZM564.196 138.234V79.9441H554.8V138.234H564.196ZM11.746 295.234V261.043L11.398 250.951H12.094L19.402 261.217L45.676 295.234H55.768V236.944H46.372V271.396L46.807 281.923H46.111L38.542 271.048L12.442 236.944H2.35V295.234H11.746ZM76.0274 295.234V271.831H111.697V263.479H76.0274V245.383H113.002V236.944H66.6314V295.234H76.0274ZM151.133 295.234V245.383H174.014V236.944H118.856V245.383H141.824V295.234H151.133ZM202.131 296.104C214.311 296.104 222.315 291.319 222.315 283.228C222.315 276.094 217.617 272.614 207.351 271.309L197.346 269.917C190.821 269.047 189.081 267.829 189.081 264.436C189.081 260.347 191.865 258.607 199.782 258.607C209.352 258.607 211.962 261.304 211.962 266.437V266.959H221.271V266.698C221.271 256.432 213.267 251.125 200.043 251.125C186.732 251.125 179.859 256.519 179.859 264.088C179.859 271.309 184.818 274.789 192.996 275.833L204.828 277.399C211.005 278.269 213.093 279.4 213.093 282.967C213.093 286.795 210.57 288.535 202.131 288.535C193.083 288.535 189.69 286.708 189.69 281.053V280.357H180.294V280.618C180.294 290.623 188.211 296.104 202.131 296.104Z" fill="white"/>
<path d="M50.809 216.234H1.48V157.944H50.809V169.689H14.53V181.086H49.504V192.744H14.53V204.489H50.809V216.234ZM70.7986 216.234H55.0516L72.4516 194.919V194.223L55.0516 172.647H70.9726L82.5436 187.35H83.2396L94.4626 172.647H110.21L92.8096 193.962V194.745L110.21 216.234H94.2886L82.7176 201.618H82.0216L70.7986 216.234ZM146.226 216.234H135.438C124.534 216.234 119.082 210.985 119.082 200.487V183.435H112.209V172.647H119.082V164.208H132.132V172.647H146.226V183.435H132.132V199.008C132.132 201.154 132.567 202.604 133.437 203.358C134.365 204.112 136.018 204.489 138.396 204.489H146.226V216.234ZM166.338 216.234H153.288V172.647H165.381V184.218H166.164C166.802 180.448 168.339 177.432 170.775 175.17C173.269 172.908 176.604 171.777 180.78 171.777C185.42 171.777 188.871 173.169 191.133 175.953C193.395 178.737 194.526 182.42 194.526 187.002V194.223H181.476V189.699C181.476 187.263 180.925 185.523 179.823 184.479C178.721 183.377 176.865 182.826 174.255 182.826C171.413 182.826 169.383 183.493 168.165 184.827C166.947 186.161 166.338 188.22 166.338 191.004V216.234ZM214.825 217.104C210.127 217.104 206.444 216.089 203.776 214.059C201.108 211.971 199.774 209.1 199.774 205.446C199.774 198.834 204.472 195.035 213.868 194.049L232.573 192.135V190.482C232.573 187.698 231.877 185.813 230.485 184.827C229.093 183.783 226.628 183.261 223.09 183.261C219.726 183.261 217.319 183.783 215.869 184.827C214.477 185.813 213.781 187.524 213.781 189.96V190.308H200.644V190.047C200.644 184.595 202.761 180.187 206.995 176.823C211.229 173.459 216.913 171.777 224.047 171.777C231.123 171.777 236.459 173.459 240.055 176.823C243.651 180.187 245.449 184.798 245.449 190.656V216.234H233.269V206.229H232.573C231.529 209.651 229.499 212.319 226.483 214.233C223.467 216.147 219.581 217.104 214.825 217.104ZM212.911 204.576C212.911 206.78 214.796 207.882 218.566 207.882C223.148 207.882 226.57 207.273 228.832 206.055C231.152 204.779 232.399 202.633 232.573 199.617L217.435 201.357C214.419 201.589 212.911 202.662 212.911 204.576ZM295.477 210.927C290.953 215.045 284.95 217.104 277.468 217.104C269.986 217.104 263.954 215.045 259.372 210.927C254.848 206.809 252.586 201.328 252.586 194.484C252.586 187.582 254.848 182.072 259.372 177.954C263.954 173.836 269.986 171.777 277.468 171.777C284.95 171.777 290.953 173.836 295.477 177.954C300.059 182.072 302.35 187.582 302.35 194.484C302.35 201.328 300.059 206.809 295.477 210.927ZM268.246 202.923C270.044 204.663 273.118 205.533 277.468 205.533C281.818 205.533 284.892 204.663 286.69 202.923C288.488 201.183 289.387 198.37 289.387 194.484C289.387 190.598 288.459 187.756 286.603 185.958C284.805 184.16 281.76 183.261 277.468 183.261C273.118 183.261 270.044 184.16 268.246 185.958C266.448 187.698 265.549 190.54 265.549 194.484C265.549 198.37 266.448 201.183 268.246 202.923ZM322.904 216.234H309.854V172.647H321.947V184.218H322.73C323.368 180.448 324.905 177.432 327.341 175.17C329.835 172.908 333.17 171.777 337.346 171.777C341.986 171.777 345.437 173.169 347.699 175.953C349.961 178.737 351.092 182.42 351.092 187.002V194.223H338.042V189.699C338.042 187.263 337.491 185.523 336.389 184.479C335.287 183.377 333.431 182.826 330.821 182.826C327.979 182.826 325.949 183.493 324.731 184.827C323.513 186.161 322.904 188.22 322.904 191.004V216.234ZM377.481 217.104C370.811 217.104 365.62 215.074 361.908 211.014C358.254 206.954 356.427 201.444 356.427 194.484C356.427 187.466 358.196 181.927 361.734 177.867C365.33 173.807 370.347 171.777 376.785 171.777C381.773 171.777 385.688 172.908 388.53 175.17C391.372 177.374 393.17 180.39 393.924 184.218H394.707V157.944H407.757V216.234H395.577V204.141H394.881C393.199 212.783 387.399 217.104 377.481 217.104ZM369.651 194.484C369.651 198.37 370.608 201.125 372.522 202.749C374.494 204.373 377.626 205.185 381.918 205.185C386.21 205.185 389.4 204.373 391.488 202.749C393.634 201.125 394.707 198.457 394.707 194.745V194.049C394.707 190.337 393.634 187.698 391.488 186.132C389.4 184.508 386.21 183.696 381.918 183.696C377.626 183.696 374.494 184.508 372.522 186.132C370.608 187.756 369.651 190.54 369.651 194.484ZM429.887 168.21H416.837V157.944H429.887V168.21ZM429.887 216.234H416.837V172.647H429.887V216.234ZM451.943 216.234H438.893V172.647H450.986V186.045H451.769C452.407 181.985 454.176 178.592 457.076 175.866C460.034 173.14 464.181 171.777 469.517 171.777C475.259 171.777 479.609 173.401 482.567 176.649C485.583 179.839 487.091 183.986 487.091 189.09V216.234H474.041V193.44C474.041 189.902 473.2 187.379 471.518 185.871C469.894 184.305 467.11 183.522 463.166 183.522C459.106 183.522 456.206 184.363 454.466 186.045C452.784 187.727 451.943 190.453 451.943 194.223V216.234ZM509.266 217.104C504.568 217.104 500.885 216.089 498.217 214.059C495.549 211.971 494.215 209.1 494.215 205.446C494.215 198.834 498.913 195.035 508.309 194.049L527.014 192.135V190.482C527.014 187.698 526.318 185.813 524.926 184.827C523.534 183.783 521.069 183.261 517.531 183.261C514.167 183.261 511.76 183.783 510.31 184.827C508.918 185.813 508.222 187.524 508.222 189.96V190.308H495.085V190.047C495.085 184.595 497.202 180.187 501.436 176.823C505.67 173.459 511.354 171.777 518.488 171.777C525.564 171.777 530.9 173.459 534.496 176.823C538.092 180.187 539.89 184.798 539.89 190.656V216.234H527.71V206.229H527.014C525.97 209.651 523.94 212.319 520.924 214.233C517.908 216.147 514.022 217.104 509.266 217.104ZM507.352 204.576C507.352 206.78 509.237 207.882 513.007 207.882C517.589 207.882 521.011 207.273 523.273 206.055C525.593 204.779 526.84 202.633 527.014 199.617L511.876 201.357C508.86 201.589 507.352 202.662 507.352 204.576ZM561.729 216.234H548.679V172.647H560.772V184.218H561.555C562.193 180.448 563.73 177.432 566.166 175.17C568.66 172.908 571.995 171.777 576.171 171.777C580.811 171.777 584.262 173.169 586.524 175.953C588.786 178.737 589.917 182.42 589.917 187.002V194.223H576.867V189.699C576.867 187.263 576.316 185.523 575.214 184.479C574.112 183.377 572.256 182.826 569.646 182.826C566.804 182.826 564.774 183.493 563.556 184.827C562.338 186.161 561.729 188.22 561.729 191.004V216.234ZM605.17 231.024H598.036V219.192H608.737C611.521 219.192 613.348 218.264 614.218 216.408L592.903 172.647H607.693L616.915 192.57L620.569 202.836H621.439L624.919 192.483L633.184 172.647H647.713L626.137 219.366C624.107 223.832 621.526 226.877 618.394 228.501C615.262 230.183 610.854 231.024 605.17 231.024Z" fill="url(#paint0_linear_27_115)"/>
<defs>
<linearGradient id="paint0_linear_27_115" x1="-2" y1="149.234" x2="845" y2="149.234" gradientUnits="userSpaceOnUse">
<stop stop-color="#69EACB"/>
<stop offset="0.48" stop-color="#EACCF8"/>
<stop offset="1" stop-color="#6654F1"/>
</linearGradient>
</defs>
</svg>
