<svg width="315" height="179" viewBox="0 0 315 179" fill="none" xmlns="http://www.w3.org/2000/svg">
<g filter="url(#filter0_bd_151_830)">
<rect width="201.359" height="73.987" rx="16.058" transform="matrix(1 -0.000590871 -0.181745 0.983346 63.6511 48.7808)" fill="url(#paint0_linear_151_830)" fill-opacity="0.15" shape-rendering="crispEdges"/>
<path d="M101.415 79.2571C105.526 79.2547 107.537 77.4094 108.065 74.5544C108.499 72.2048 107.144 70.6393 103.725 70.515L103.771 70.2624C106.929 70.1342 108.37 68.5924 108.772 66.4196C109.262 63.7668 107.678 62.3278 103.953 62.33L93.0077 62.3364L89.8791 79.2639L101.415 79.2571ZM97.0231 66.6034L102.521 66.6001C103.523 66.5995 103.853 66.9025 103.708 67.6857C103.563 68.4689 103.229 68.747 102.253 68.7476L96.6262 68.7509L97.0231 66.6034ZM95.9071 72.6417L102.022 72.6381C103.204 72.6374 103.496 72.8646 103.323 73.7994C103.146 74.7594 102.744 74.987 101.588 74.9877L95.4728 74.9913L95.9071 72.6417ZM113.051 79.2502L116.179 62.3227L111.349 62.3256L108.22 79.2531L113.051 79.2502ZM123.586 79.244C129.264 79.2407 133.435 76.131 134.425 70.7748C135.415 65.4186 132.393 62.3132 126.714 62.3165L118.005 62.3217L114.876 79.2492L123.586 79.244ZM125.925 66.5863C128.983 66.5845 129.966 66.9628 129.261 70.7778C128.556 74.5928 127.432 74.9724 124.375 74.9742L120.495 74.9765L122.046 66.5886L125.925 66.5863ZM142.557 79.2328L143.781 72.6134L144.173 69.3796L144.507 69.3794L146.074 72.7131L149.957 79.2284L155.095 79.2254L158.224 62.2979L153.394 62.3007L152.184 68.8444L151.734 72.5329L151.4 72.5331L149.601 68.6438L145.994 62.3051L140.856 62.3082L137.727 79.2357L142.557 79.2328ZM165.874 79.4717C172.014 79.468 176.144 76.0299 177.12 70.7496C178.095 65.4692 175.236 62.0352 169.096 62.0388C163.109 62.0424 158.929 65.4805 157.953 70.7609C156.977 76.0413 159.887 79.4752 165.874 79.4717ZM166.714 74.924C163.22 74.926 162.47 74.1181 163.091 70.7578C163.712 67.3976 164.761 66.5886 168.255 66.5865C171.749 66.5845 172.602 67.3924 171.981 70.7526C171.36 74.1128 170.208 74.9219 166.714 74.924ZM187.069 79.2065L190.465 71.9543L192.653 66.6479L192.987 66.6477L193.137 71.9527L193.595 79.2027L200.763 79.1984L207.823 62.2686L202.53 62.2717L199.319 70.888L198.1 74.7033L197.766 74.7035L197.855 70.8889L197.34 62.2748L190.069 62.2791L186.165 70.8958L184.766 74.7112L184.432 74.7114L184.674 70.8967L184.828 62.2822L179.432 62.2854L179.901 79.2107L187.069 79.2065ZM212.943 73.6335C213.255 71.9408 215.025 65.9779 215.385 64.0325L215.712 62.2639L209.443 62.2676L209.116 64.0362C208.756 65.9816 208.327 71.9184 208.009 73.6365L212.943 73.6335ZM212.198 79.1917L213.024 74.7198L207.5 74.723L206.674 79.1949L212.198 79.1917Z" fill="white"/>
<path d="M93.6677 100.893L93.9319 99.4634L87.7421 99.467L89.3029 91.0222L87.6843 91.0232L85.8592 100.898L93.6677 100.893ZM96.8751 101.038C98.5687 101.037 99.8889 100.3 100.507 99.0616L100.612 99.0615L100.275 100.889L101.758 100.888L102.581 96.4373C102.905 94.6835 102.075 93.4167 99.7071 93.4181C97.3391 93.4195 95.6988 94.673 95.391 96.3384L95.3801 96.3974L96.9837 96.3964L96.9946 96.3375C97.1935 95.2616 97.9496 94.8191 99.3285 94.8182C100.752 94.8174 101.213 95.2445 100.989 96.453L100.91 96.8804L97.4579 97.2361C95.9592 97.3991 94.921 97.9891 94.7113 99.124C94.4879 100.332 95.3314 101.039 96.8751 101.038ZM96.349 99.0198C96.4552 98.4451 96.8953 98.2532 97.7537 98.1496L100.736 97.8236C100.469 99.2679 99.2158 99.8876 97.5222 99.8886C96.593 99.8891 96.2401 99.6094 96.349 99.0198ZM108.089 100.884L108.353 99.4548L107.004 99.4556C106.075 99.4562 105.699 99.2206 105.865 98.3216L106.5 94.8877L109.198 94.8861L109.443 93.5597L106.745 93.5613L107.042 91.9549L105.438 91.9558L105.141 93.5622L103.882 93.563L103.637 94.8894L104.896 94.8886L104.245 98.411C103.916 100.194 104.777 100.886 106.38 100.885L108.089 100.884ZM112.821 101.029C115.039 101.028 116.797 99.9509 117.086 98.3887L117.11 98.256L115.491 98.257L115.47 98.3749C115.309 99.2444 114.572 99.7459 113.013 99.7468C111.29 99.7478 110.724 98.9966 110.926 97.5818L117.25 97.5781C117.336 97.357 117.389 97.1506 117.438 96.8854C117.85 94.6599 116.508 93.4081 114.199 93.4095C111.771 93.4109 109.9 94.9446 109.477 97.229C109.025 99.6755 110.378 101.03 112.821 101.029ZM113.938 94.6622C115.527 94.6613 116.201 95.3093 115.951 96.6652L115.945 96.6947L111.104 96.6975C111.436 95.3858 112.289 94.6632 113.938 94.6622ZM121.407 101.024C123.506 101.023 125.034 100.211 125.288 98.8406C125.511 97.6321 124.811 97.0431 123.083 96.8231L121.403 96.5883C120.306 96.4416 120.045 96.2354 120.151 95.6606C120.279 94.968 120.813 94.6729 122.177 94.6721C123.825 94.6711 124.191 95.1278 124.03 95.9973L124.013 96.0857L125.617 96.0848L125.625 96.0406C125.947 94.3015 124.734 93.4033 122.456 93.4046C120.163 93.406 118.81 94.3204 118.573 95.6026C118.347 96.8259 119.092 97.4149 120.468 97.5909L122.458 97.855C123.494 98.0017 123.819 98.1931 123.707 98.7974C123.587 99.4458 123.098 99.7408 121.644 99.7417C120.086 99.7426 119.558 99.4335 119.735 98.4755L119.757 98.3576L118.139 98.3586L118.13 98.4028C117.817 100.098 119.009 101.025 121.407 101.024ZM130.965 100.871L131.23 99.4413L129.881 99.4421C128.952 99.4427 128.576 99.2071 128.742 98.3081L129.376 94.8742L132.074 94.8726L132.319 93.5462L129.622 93.5478L129.918 91.9413L128.315 91.9423L128.018 93.5487L126.759 93.5495L126.514 94.8759L127.773 94.8751L127.122 98.3975C126.792 100.181 127.653 100.873 129.257 100.872L130.965 100.871ZM139.398 101.013C142.246 101.012 144.481 99.5366 144.92 97.1638L144.955 96.9723L143.172 96.9733L143.136 97.1649C142.856 98.6829 141.735 99.4793 139.696 99.4805C137.343 99.4819 136.406 98.392 136.861 95.9308C137.316 93.4695 138.659 92.3635 141.012 92.3621C143.05 92.3609 143.875 93.1709 143.597 94.6742L143.559 94.8805L145.342 94.8795L145.38 94.6731C145.816 92.3151 144.11 90.8425 141.277 90.8441C138.16 90.846 135.721 92.8516 135.152 95.9318C134.583 99.012 136.281 101.015 139.398 101.013ZM149.208 101.007C151.696 101.006 153.646 99.4575 154.063 97.2027C154.485 94.9183 153.104 93.3865 150.616 93.388C148.144 93.3895 146.197 94.9232 145.774 97.2075C145.358 99.4624 146.735 101.009 149.208 101.007ZM149.47 99.5926C147.671 99.5937 147.077 98.7541 147.363 97.2066C147.652 95.6444 148.559 94.7892 150.358 94.7881C152.171 94.787 152.763 95.6414 152.474 97.2036C152.188 98.7511 151.283 99.5916 149.47 99.5926ZM156.18 100.856L158.005 90.9816L156.387 90.9826L154.562 100.857L156.18 100.856ZM159.298 100.854L161.123 90.9798L159.504 90.9807L157.679 100.855L159.298 100.854ZM164.516 100.998C166.734 100.997 168.492 99.9203 168.781 98.3581L168.805 98.2255L167.187 98.2264L167.165 98.3443C167.004 99.2139 166.267 99.7153 164.708 99.7163C162.985 99.7173 162.419 98.9661 162.621 97.5513L168.946 97.5475C169.031 97.3264 169.084 97.1201 169.133 96.8548C169.545 94.6294 168.203 93.3776 165.895 93.379C163.467 93.3804 161.595 94.9141 161.172 97.1985C160.72 99.6449 162.073 101 164.516 100.998ZM165.633 94.6317C167.222 94.6308 167.896 95.2788 167.646 96.6346L167.64 96.6641L162.799 96.667C163.132 95.3553 163.984 94.6327 165.633 94.6317ZM173.342 100.993C175.575 100.992 177.438 99.753 177.776 97.9255L177.806 97.7633L176.202 97.7643L176.183 97.8675C175.973 99.0023 175.03 99.5628 173.577 99.5637C171.898 99.5647 171.296 98.7693 171.587 97.1923C171.884 95.5859 172.778 94.8043 174.456 94.8033C175.91 94.8025 176.646 95.362 176.436 96.4968L176.42 96.5853L178.023 96.5843L178.051 96.4369C178.388 94.6094 176.984 93.3724 174.751 93.3737C172.293 93.3752 170.406 94.9089 169.983 97.1932C169.567 99.4481 170.884 100.995 173.342 100.993ZM183.319 100.84L183.583 99.4104L182.235 99.4112C181.305 99.4117 180.929 99.1762 181.095 98.2772L181.73 94.8432L184.428 94.8416L184.673 93.5152L181.975 93.5168L182.272 91.9104L180.668 91.9113L180.372 93.5178L179.113 93.5185L178.867 94.8449L180.126 94.8442L179.475 98.3665C179.146 100.15 180.007 100.842 181.611 100.841L183.319 100.84ZM187.462 92.6589L187.775 90.964L186.157 90.965L185.843 92.6598L187.462 92.6589ZM185.95 100.838L187.304 93.5137L185.685 93.5146L184.332 100.839L185.95 100.838ZM191.229 100.983C193.717 100.981 195.666 99.4327 196.083 97.1778C196.505 94.8935 195.125 93.3617 192.637 93.3632C190.164 93.3646 188.217 94.8983 187.795 97.1827C187.378 99.4376 188.756 100.984 191.229 100.983ZM191.49 99.5678C189.692 99.5689 189.098 98.7293 189.384 97.1818C189.672 95.6196 190.58 94.7643 192.378 94.7633C194.192 94.7622 194.783 95.6165 194.494 97.1788C194.208 98.7262 193.304 99.5667 191.49 99.5678ZM198.201 100.831L198.871 97.2056C199.165 95.614 200.052 94.7882 201.686 94.7872C203.229 94.7863 203.731 95.4786 203.477 96.8493L202.742 100.828L204.361 100.828L205.175 96.4209C205.488 94.726 204.723 93.356 202.654 93.3572C200.766 93.3584 199.559 94.538 199.105 95.7761L199 95.7762L199.42 93.5065L197.936 93.5074L196.582 100.832L198.201 100.831Z" fill="white"/>
<rect x="0.437985" y="0.526037" width="200.288" height="72.9165" rx="15.5228" transform="matrix(1 -0.000590871 -0.181745 0.983346 63.7467 48.7898)" stroke="url(#paint1_linear_151_830)" stroke-opacity="0.3" stroke-width="1.07053" shape-rendering="crispEdges"/>
</g>
<defs>
<filter id="filter0_bd_151_830" x="-2.25185" y="0.487777" width="319.718" height="177.786" filterUnits="userSpaceOnUse" color-interpolation-filters="sRGB">
<feFlood flood-opacity="0" result="BackgroundImageFix"/>
<feGaussianBlur in="BackgroundImage" stdDeviation="13.3817"/>
<feComposite in2="SourceAlpha" operator="in" result="effect1_backgroundBlur_151_830"/>
<feColorMatrix in="SourceAlpha" type="matrix" values="0 0 0 0 0 0 0 0 0 0 0 0 0 0 0 0 0 0 127 0" result="hardAlpha"/>
<feOffset dy="4.28214"/>
<feGaussianBlur stdDeviation="26.2281"/>
<feComposite in2="hardAlpha" operator="out"/>
<feColorMatrix type="matrix" values="0 0 0 0 0 0 0 0 0 0.0283334 0 0 0 0 0.283333 0 0 0 0.12 0"/>
<feBlend mode="normal" in2="effect1_backgroundBlur_151_830" result="effect2_dropShadow_151_830"/>
<feBlend mode="normal" in="SourceGraphic" in2="effect2_dropShadow_151_830" result="shape"/>
</filter>
<linearGradient id="paint0_linear_151_830" x1="9.26404e-06" y1="-2.30489" x2="24.8525" y2="143.645" gradientUnits="userSpaceOnUse">
<stop stop-color="white" stop-opacity="0"/>
<stop offset="1" stop-color="white"/>
</linearGradient>
<linearGradient id="paint1_linear_151_830" x1="-7.14355" y1="-6.33845" x2="17.5662" y2="118.303" gradientUnits="userSpaceOnUse">
<stop stop-color="white"/>
<stop offset="1" stop-color="white" stop-opacity="0"/>
</linearGradient>
</defs>
</svg>
