<svg width="60" height="39" viewBox="0 0 60 39" fill="none" xmlns="http://www.w3.org/2000/svg">
<path d="M37.6388 1.605L31.7393 -8.33429e-07L26.7677 18.8386L22.2792 1.83098L16.3796 3.43599L21.2291 21.8114L9.15012 9.54752L4.83133 13.9325L18.0804 27.3846L1.58079 22.8958L5.66703e-07 28.8857L18.0279 33.7903C17.8215 32.8864 17.7123 31.9446 17.7123 30.9769C17.7123 24.1271 23.1813 18.5743 29.9277 18.5743C36.6741 18.5743 42.1431 24.1271 42.1431 30.9769C42.1431 31.9383 42.0353 32.8744 41.8315 33.7729L58.2155 38.2302L59.7962 32.2403L41.6966 27.3162L58.1974 22.8271L56.6165 16.8372L38.5177 21.761L50.5966 9.49717L46.2778 5.11222L33.2124 18.3777L37.6388 1.605Z" fill="#52FF00"/>
</svg>
